<?xml version="1.0" encoding="UTF-8"?>
<svg  xmlns="http://www.w3.org/2000/svg" xmlns:xlink="http://www.w3.org/1999/xlink" width="20px" height="19px" viewBox="0 0 19 19" version="1.1">
<g id="surface1">
<path style=" stroke:none;fill-rule:nonzero;fill:rgb(100%,100%,100%);fill-opacity:1;" d="M 7.972656 1.023438 C 7.890625 1.042969 7.9375 1.199219 8.226562 1.925781 C 8.417969 2.40625 8.589844 2.785156 8.601562 2.78125 C 8.625 2.746094 8.164062 1.089844 8.113281 1.039062 C 8.09375 1.019531 8.03125 1.011719 7.972656 1.023438 Z M 7.972656 1.023438 "/>
<path style=" stroke:none;fill-rule:nonzero;fill:rgb(100%,100%,100%);fill-opacity:1;" d="M 9.4375 1.558594 L 9.4375 2.148438 L 9.105469 2.558594 C 8.929688 2.785156 8.582031 3.195312 8.339844 3.472656 C 7.980469 3.894531 7.929688 3.980469 8.035156 3.980469 C 8.207031 3.980469 8.214844 4.007812 8.257812 4.703125 L 8.296875 5.265625 L 7.941406 5.234375 L 7.582031 5.199219 L 7.625 5.519531 C 7.695312 6.042969 7.734375 6.199219 7.789062 6.199219 C 7.820312 6.199219 7.9375 6.285156 8.042969 6.382812 L 8.238281 6.570312 L 8.175781 8.847656 C 8.144531 10.101562 8.09375 11.191406 8.070312 11.269531 C 8.035156 11.398438 7.988281 11.417969 7.726562 11.417969 C 7.46875 11.417969 7.378906 11.457031 7.0625 11.710938 C 6.859375 11.867188 6.632812 12.109375 6.554688 12.246094 C 6.421875 12.46875 6.414062 12.5 6.503906 12.761719 C 6.617188 13.109375 6.667969 13.152344 7.042969 13.207031 C 7.316406 13.246094 7.359375 13.230469 7.503906 13.089844 C 7.707031 12.878906 7.777344 12.875 7.851562 13.082031 C 8.023438 13.546875 7.316406 14.40625 6.625 14.5625 C 6.484375 14.597656 6.25 14.714844 6.117188 14.824219 C 5.953125 14.960938 5.71875 15.066406 5.421875 15.136719 C 5.035156 15.230469 4.921875 15.289062 4.6875 15.535156 C 4.308594 15.921875 4.046875 16.039062 3.839844 15.902344 C 3.425781 15.621094 3.703125 14.308594 4.167969 14.367188 C 4.300781 14.378906 4.34375 14.433594 4.375 14.617188 C 4.425781 14.851562 4.628906 15.070312 4.808594 15.070312 C 5.027344 15.070312 5.585938 14.8125 5.707031 14.65625 C 5.8125 14.511719 5.890625 14.484375 6.144531 14.484375 C 6.546875 14.484375 6.769531 14.300781 6.820312 13.917969 C 6.847656 13.707031 6.828125 13.589844 6.738281 13.460938 C 6.675781 13.355469 6.582031 13.191406 6.523438 13.082031 C 6.472656 12.976562 6.339844 12.839844 6.230469 12.777344 C 6.015625 12.644531 5.136719 12.496094 4.679688 12.507812 C 4.148438 12.527344 3.539062 12.953125 3.261719 13.507812 C 3.210938 13.609375 3.089844 14.015625 3.003906 14.398438 C 2.800781 15.269531 2.75 15.367188 2.75 14.910156 C 2.75 14.453125 2.589844 14.21875 2.234375 14.132812 C 1.925781 14.066406 1.699219 14.199219 1.546875 14.53125 C 1.457031 14.707031 1.457031 14.785156 1.511719 14.914062 C 1.578125 15.066406 1.613281 15.078125 1.855469 15.058594 L 2.121094 15.039062 L 2.140625 15.328125 C 2.179688 15.886719 1.9375 16.296875 1.195312 16.898438 C 1.019531 17.042969 0.886719 17.160156 0.898438 17.160156 C 0.90625 17.160156 1.121094 17.089844 1.363281 16.996094 C 1.957031 16.78125 2.566406 16.78125 3.324219 16.996094 C 4.074219 17.210938 4.238281 17.207031 4.964844 16.933594 C 5.300781 16.808594 5.6875 16.703125 5.8125 16.703125 C 5.941406 16.703125 6.289062 16.792969 6.585938 16.90625 C 7.492188 17.246094 7.917969 17.324219 8.328125 17.230469 C 8.519531 17.1875 8.757812 17.082031 8.855469 16.996094 C 8.949219 16.917969 9.058594 16.851562 9.089844 16.851562 C 9.191406 16.851562 9.375 16.429688 9.375 16.1875 C 9.375 15.84375 9.242188 15.464844 9.039062 15.261719 C 8.9375 15.15625 8.835938 15.070312 8.804688 15.070312 C 8.777344 15.070312 8.847656 15.171875 8.960938 15.289062 C 9.289062 15.625 9.390625 16.175781 9.214844 16.617188 C 9.105469 16.886719 9.019531 16.878906 9.121094 16.613281 C 9.207031 16.359375 9.195312 15.886719 9.09375 15.625 C 9.019531 15.4375 8.675781 15.136719 8.542969 15.136719 C 8.519531 15.136719 8.421875 15.203125 8.328125 15.28125 C 8.175781 15.40625 8.171875 15.425781 8.265625 15.476562 C 8.359375 15.535156 8.359375 15.546875 8.257812 15.664062 C 8.132812 15.816406 7.777344 15.828125 7.664062 15.691406 C 7.566406 15.574219 7.632812 15.464844 7.796875 15.464844 C 7.859375 15.464844 7.917969 15.429688 7.917969 15.398438 C 7.917969 15.359375 7.878906 15.332031 7.828125 15.332031 C 7.777344 15.332031 7.714844 15.300781 7.695312 15.261719 C 7.632812 15.164062 7.851562 14.941406 8.003906 14.949219 C 8.132812 14.960938 8.132812 14.960938 8 14.988281 C 7.921875 15 7.828125 15.066406 7.777344 15.125 C 7.707031 15.210938 7.707031 15.214844 7.789062 15.164062 C 7.839844 15.128906 7.988281 15.070312 8.105469 15.027344 C 8.308594 14.960938 8.316406 14.949219 8.1875 14.910156 C 8.03125 14.855469 8 14.773438 8.125 14.734375 C 8.164062 14.71875 8.335938 14.714844 8.5 14.714844 C 8.664062 14.71875 8.785156 14.699219 8.765625 14.675781 C 8.753906 14.648438 8.789062 14.609375 8.847656 14.597656 C 8.910156 14.578125 8.859375 14.5625 8.738281 14.558594 C 8.40625 14.542969 8.636719 14.417969 9 14.417969 C 9.203125 14.417969 9.347656 14.457031 9.460938 14.558594 C 9.632812 14.695312 9.691406 14.648438 9.550781 14.492188 C 9.480469 14.417969 9.507812 14.40625 9.691406 14.445312 C 9.847656 14.472656 9.992188 14.578125 10.210938 14.824219 C 10.898438 15.621094 10.945312 16.359375 10.324219 16.800781 C 10.058594 16.992188 9.574219 17.160156 9.296875 17.160156 C 9.175781 17.160156 9.125 17.1875 9.15625 17.230469 C 9.183594 17.277344 9.304688 17.289062 9.492188 17.265625 C 10.304688 17.148438 10.824219 16.9375 11.242188 16.566406 C 11.363281 16.457031 11.464844 16.390625 11.464844 16.417969 C 11.464844 16.449219 11.648438 16.285156 11.867188 16.058594 C 12.167969 15.757812 12.363281 15.613281 12.609375 15.523438 C 12.800781 15.457031 12.902344 15.40625 12.835938 15.398438 C 12.773438 15.398438 12.621094 15.445312 12.496094 15.496094 C 12.367188 15.546875 12.253906 15.582031 12.234375 15.5625 C 12.183594 15.515625 12.640625 15.332031 12.804688 15.332031 C 12.886719 15.332031 13.039062 15.378906 13.140625 15.4375 C 13.253906 15.496094 13.300781 15.503906 13.253906 15.457031 C 13.121094 15.320312 13.160156 15.269531 13.351562 15.339844 C 13.585938 15.429688 13.808594 15.660156 13.808594 15.804688 C 13.808594 15.875 13.832031 15.914062 13.863281 15.894531 C 13.996094 15.804688 14.054688 16.421875 13.921875 16.558594 C 13.875 16.605469 13.773438 16.644531 13.679688 16.644531 C 13.574219 16.652344 13.558594 16.664062 13.636719 16.683594 C 13.691406 16.695312 13.730469 16.742188 13.710938 16.773438 C 13.65625 16.867188 13.40625 16.847656 13.191406 16.734375 C 13.035156 16.652344 13.007812 16.605469 13.035156 16.457031 C 13.046875 16.359375 13.105469 16.238281 13.160156 16.195312 C 13.21875 16.15625 13.230469 16.117188 13.199219 16.117188 C 13.089844 16.117188 12.984375 16.265625 12.984375 16.429688 C 12.984375 16.515625 12.957031 16.558594 12.921875 16.539062 C 12.820312 16.476562 12.84375 16.324219 12.984375 16.179688 C 13.136719 16.023438 13.320312 16.011719 13.453125 16.15625 C 13.539062 16.238281 13.554688 16.246094 13.554688 16.15625 C 13.554688 16.101562 13.523438 16.039062 13.488281 16.019531 C 13.453125 15.992188 13.4375 15.953125 13.457031 15.921875 C 13.523438 15.816406 13.371094 15.785156 13.121094 15.847656 C 12.953125 15.902344 12.738281 16.0625 12.433594 16.371094 C 11.984375 16.828125 11.597656 17.03125 11.152344 17.03125 C 11.0625 17.03125 10.945312 17.0625 10.894531 17.101562 C 10.824219 17.148438 10.949219 17.152344 11.335938 17.121094 C 12.078125 17.054688 12.835938 17.089844 13.160156 17.199219 C 13.546875 17.328125 13.84375 17.316406 14.363281 17.128906 C 14.921875 16.925781 15.269531 16.925781 15.847656 17.101562 C 16.648438 17.355469 17.636719 17.191406 18.175781 16.710938 L 18.335938 16.574219 L 18.144531 16.617188 C 18.042969 16.652344 17.734375 16.671875 17.46875 16.664062 C 17.0625 16.664062 16.917969 16.632812 16.601562 16.46875 C 16.316406 16.316406 16.238281 16.296875 16.28125 16.382812 C 16.367188 16.546875 16.960938 16.832031 17.21875 16.839844 L 17.449219 16.847656 L 17.238281 16.917969 C 16.765625 17.074219 16.03125 16.714844 15.921875 16.277344 C 15.832031 15.914062 16.265625 15.503906 16.371094 15.847656 C 16.410156 15.984375 16.738281 16.117188 17.042969 16.117188 C 17.296875 16.117188 17.570312 15.71875 17.523438 15.417969 C 17.429688 14.851562 17.09375 14.617188 16.351562 14.617188 C 15.648438 14.617188 15.269531 14.8125 15.074219 15.269531 C 15.023438 15.398438 15.011719 15.351562 15.035156 15.027344 C 15.066406 14.558594 15.230469 14.203125 15.441406 14.171875 C 15.515625 14.160156 15.578125 14.183594 15.578125 14.222656 C 15.578125 14.261719 15.679688 14.339844 15.808594 14.394531 C 16.113281 14.523438 16.414062 14.425781 16.59375 14.132812 C 16.71875 13.910156 16.765625 13.480469 16.664062 13.414062 C 16.632812 13.394531 16.574219 13.25 16.535156 13.089844 C 16.421875 12.625 15.8125 12.167969 15.210938 12.089844 C 14.777344 12.039062 14.058594 12.273438 13.839844 12.539062 C 13.75 12.652344 13.65625 12.828125 13.636719 12.925781 C 13.597656 13.140625 13.523438 13.21875 13.292969 13.257812 C 13.128906 13.289062 13.128906 13.285156 13.1875 13.074219 C 13.324219 12.539062 12.730469 11.992188 11.976562 11.960938 C 11.539062 11.945312 11.191406 12.058594 11.046875 12.253906 C 10.96875 12.351562 10.957031 12.332031 10.949219 12.070312 C 10.949219 11.90625 10.9375 11.648438 10.925781 11.484375 C 10.914062 11.320312 10.875 10.152344 10.828125 8.886719 L 10.761719 6.589844 L 10.9375 6.394531 C 11.03125 6.285156 11.148438 6.199219 11.191406 6.199219 C 11.265625 6.199219 11.296875 6.066406 11.375 5.519531 L 11.417969 5.199219 L 11.058594 5.234375 L 10.695312 5.265625 L 10.734375 4.769531 C 10.792969 4.050781 10.8125 3.980469 10.964844 3.980469 C 11.070312 3.980469 11.027344 3.894531 10.695312 3.515625 C 10.476562 3.261719 10.128906 2.84375 9.929688 2.589844 L 9.5625 2.128906 L 9.5625 1.554688 C 9.5625 1.214844 9.539062 0.980469 9.5 0.980469 C 9.460938 0.980469 9.4375 1.214844 9.4375 1.558594 Z M 9.273438 2.621094 C 8.941406 3.308594 8.582031 3.914062 8.5 3.914062 C 8.386719 3.914062 8.378906 3.929688 8.890625 3.113281 C 9.328125 2.40625 9.460938 2.238281 9.273438 2.621094 Z M 10.132812 3.136719 C 10.378906 3.535156 10.570312 3.882812 10.546875 3.902344 C 10.480469 3.972656 10.3125 3.730469 9.96875 3.085938 C 9.785156 2.734375 9.625 2.484375 9.625 2.53125 C 9.625 2.609375 9.824219 3.476562 9.917969 3.796875 C 9.941406 3.875 9.917969 3.914062 9.855469 3.914062 C 9.796875 3.914062 9.753906 3.894531 9.753906 3.875 C 9.753906 3.847656 9.710938 3.554688 9.652344 3.222656 C 9.5625 2.683594 9.5625 2.414062 9.652344 2.414062 C 9.664062 2.414062 9.878906 2.742188 10.132812 3.136719 Z M 9.339844 3.296875 C 9.257812 3.738281 9.207031 3.914062 9.140625 3.914062 C 9.082031 3.914062 9.0625 3.875 9.082031 3.796875 C 9.101562 3.738281 9.175781 3.425781 9.253906 3.097656 C 9.429688 2.363281 9.480469 2.480469 9.339844 3.296875 Z M 8.839844 4.046875 C 8.988281 4.046875 8.992188 4.058594 8.972656 4.515625 C 8.96875 4.777344 8.972656 5.035156 8.992188 5.089844 C 9.019531 5.160156 8.972656 5.179688 8.804688 5.160156 C 8.683594 5.15625 8.574219 5.136719 8.570312 5.128906 C 8.554688 5.121094 8.53125 4.855469 8.511719 4.535156 C 8.46875 4.007812 8.472656 3.960938 8.574219 4 C 8.636719 4.027344 8.757812 4.046875 8.839844 4.046875 Z M 10.53125 4.148438 C 10.527344 4.214844 10.5 4.46875 10.480469 4.710938 C 10.445312 5.082031 10.417969 5.15625 10.324219 5.15625 C 10.261719 5.15625 10.164062 5.167969 10.113281 5.195312 C 10.039062 5.21875 10.027344 5.121094 10.019531 4.640625 L 10.011719 4.050781 L 10.214844 4.027344 C 10.5 3.992188 10.546875 4.007812 10.53125 4.148438 Z M 9.867188 4.125 C 9.847656 4.175781 9.722656 4.203125 9.523438 4.195312 C 9.355469 4.1875 9.285156 4.203125 9.375 4.214844 C 9.828125 4.300781 9.804688 4.265625 9.796875 4.75 L 9.796875 5.195312 L 9.492188 5.195312 C 9.328125 5.1875 9.222656 5.167969 9.257812 5.148438 C 9.296875 5.121094 9.296875 5.089844 9.265625 5.070312 C 9.183594 5.015625 9.175781 4.4375 9.257812 4.4375 C 9.289062 4.4375 9.304688 4.464844 9.277344 4.496094 C 9.257812 4.527344 9.277344 4.582031 9.316406 4.605469 C 9.359375 4.632812 9.375 4.625 9.355469 4.585938 C 9.328125 4.546875 9.378906 4.515625 9.46875 4.515625 C 9.558594 4.515625 9.609375 4.546875 9.582031 4.585938 C 9.5625 4.625 9.574219 4.632812 9.621094 4.605469 C 9.660156 4.582031 9.675781 4.527344 9.660156 4.496094 C 9.632812 4.464844 9.660156 4.4375 9.703125 4.4375 C 9.753906 4.4375 9.734375 4.402344 9.671875 4.363281 C 9.601562 4.324219 9.476562 4.304688 9.378906 4.324219 C 9.234375 4.359375 9.207031 4.339844 9.195312 4.203125 C 9.183594 4.050781 9.203125 4.046875 9.539062 4.046875 C 9.785156 4.046875 9.878906 4.070312 9.867188 4.125 Z M 7.980469 5.609375 C 7.980469 5.753906 7.953125 5.871094 7.917969 5.871094 C 7.886719 5.871094 7.851562 5.753906 7.851562 5.609375 C 7.851562 5.46875 7.886719 5.351562 7.917969 5.351562 C 7.953125 5.351562 7.980469 5.46875 7.980469 5.609375 Z M 8.296875 5.652344 C 8.296875 5.828125 8.269531 5.929688 8.234375 5.90625 C 8.203125 5.886719 8.171875 5.75 8.171875 5.605469 C 8.171875 5.46875 8.203125 5.351562 8.234375 5.351562 C 8.269531 5.351562 8.296875 5.488281 8.296875 5.652344 Z M 8.929688 5.683594 C 8.929688 5.890625 8.910156 5.9375 8.804688 5.9375 C 8.695312 5.9375 8.675781 5.890625 8.675781 5.691406 C 8.675781 5.410156 8.714844 5.34375 8.839844 5.394531 C 8.898438 5.414062 8.929688 5.527344 8.929688 5.683594 Z M 10.007812 5.683594 C 10.007812 5.890625 9.988281 5.9375 9.878906 5.9375 C 9.773438 5.9375 9.753906 5.890625 9.753906 5.683594 C 9.753906 5.449219 9.84375 5.324219 9.960938 5.394531 C 9.988281 5.410156 10.007812 5.539062 10.007812 5.683594 Z M 10.835938 5.589844 L 10.847656 5.839844 L 10.894531 5.578125 L 10.9375 5.316406 L 10.949219 5.609375 C 10.957031 5.867188 10.9375 5.910156 10.828125 5.917969 C 10.722656 5.929688 10.703125 5.890625 10.703125 5.636719 C 10.703125 5.292969 10.824219 5.246094 10.835938 5.589844 Z M 11.148438 5.609375 C 11.148438 5.753906 11.121094 5.871094 11.082031 5.871094 C 11.050781 5.871094 11.019531 5.753906 11.019531 5.609375 C 11.019531 5.46875 11.050781 5.351562 11.082031 5.351562 C 11.121094 5.351562 11.148438 5.46875 11.148438 5.609375 Z M 9.246094 5.675781 C 9.246094 5.859375 9.222656 5.9375 9.15625 5.9375 C 9.101562 5.9375 9.0625 5.847656 9.042969 5.675781 C 9.023438 5.460938 9.042969 5.414062 9.132812 5.414062 C 9.222656 5.414062 9.246094 5.46875 9.246094 5.675781 Z M 9.640625 5.675781 C 9.621094 5.871094 9.589844 5.9375 9.5 5.9375 C 9.410156 5.9375 9.378906 5.871094 9.359375 5.675781 C 9.339844 5.433594 9.347656 5.414062 9.5 5.414062 C 9.652344 5.414062 9.660156 5.433594 9.640625 5.675781 Z M 10.476562 5.691406 C 10.496094 5.808594 10.578125 5.964844 10.652344 6.046875 L 10.792969 6.199219 L 10.660156 6.34375 C 10.539062 6.460938 10.507812 6.464844 10.417969 6.394531 C 10.363281 6.347656 10.335938 6.265625 10.355469 6.210938 C 10.375 6.160156 10.355469 6.023438 10.316406 5.90625 C 10.242188 5.691406 10.273438 5.480469 10.375 5.480469 C 10.40625 5.480469 10.449219 5.570312 10.476562 5.691406 Z M 9.386719 6.027344 C 9.988281 6.035156 10.195312 6.054688 10.195312 6.113281 C 10.195312 6.277344 7.859375 6.179688 7.800781 6.015625 C 7.785156 5.949219 7.859375 5.9375 8.175781 5.976562 C 8.398438 6.003906 8.941406 6.027344 9.386719 6.027344 Z M 9.488281 6.34375 C 9.84375 6.355469 10.132812 6.375 10.132812 6.394531 C 10.132812 6.519531 9.9375 6.589844 9.59375 6.589844 C 8.878906 6.589844 8.386719 6.511719 8.226562 6.382812 L 8.074219 6.257812 L 8.453125 6.296875 C 8.664062 6.316406 9.125 6.335938 9.488281 6.34375 Z M 10.5 6.660156 C 10.425781 6.6875 10.277344 6.707031 10.183594 6.714844 L 10.019531 6.71875 L 10.019531 7.289062 C 10.027344 7.808594 10.039062 7.875 10.175781 8.003906 C 10.3125 8.136719 10.328125 8.203125 10.3125 8.558594 C 10.292969 8.933594 10.277344 8.972656 10.160156 8.953125 C 10.039062 8.9375 10.03125 8.972656 10.027344 9.527344 C 10.019531 9.984375 10.039062 10.113281 10.109375 10.113281 C 10.242188 10.113281 10.324219 10.335938 10.324219 10.726562 C 10.324219 11.066406 10.3125 11.09375 10.171875 11.09375 C 10.058594 11.09375 10.027344 11.125 10.027344 11.253906 C 10.027344 11.410156 10.039062 11.417969 10.253906 11.378906 C 10.378906 11.359375 10.539062 11.328125 10.609375 11.308594 C 10.714844 11.28125 10.722656 11.289062 10.652344 11.359375 C 10.589844 11.425781 10.34375 11.449219 9.703125 11.457031 C 9.101562 11.464844 8.941406 11.457031 9.183594 11.425781 L 9.53125 11.371094 L 9.242188 11.367188 C 9.074219 11.359375 8.847656 11.339844 8.734375 11.320312 C 8.542969 11.292969 8.539062 11.292969 8.675781 11.351562 C 8.804688 11.40625 8.789062 11.410156 8.582031 11.378906 C 8.441406 11.359375 8.316406 11.320312 8.296875 11.300781 C 8.277344 11.273438 8.277344 10.621094 8.296875 9.851562 L 8.328125 8.449219 L 8.367188 9.460938 C 8.386719 10.015625 8.390625 9.605469 8.378906 8.546875 L 8.355469 6.621094 L 9.5 6.621094 C 10.132812 6.621094 10.582031 6.640625 10.5 6.660156 Z M 10.511719 7.453125 C 10.511719 8.011719 10.507812 8.046875 10.40625 7.945312 C 10.277344 7.808594 10.214844 7.183594 10.316406 6.988281 C 10.457031 6.71875 10.511719 6.851562 10.511719 7.453125 Z M 10.601562 8.886719 C 10.578125 8.925781 10.5625 9.296875 10.570312 9.714844 L 10.582031 10.472656 L 10.410156 10.121094 C 10.265625 9.808594 10.253906 9.726562 10.304688 9.488281 C 10.363281 9.246094 10.355469 9.21875 10.265625 9.253906 C 10.195312 9.273438 10.222656 9.21875 10.324219 9.09375 C 10.539062 8.839844 10.703125 8.710938 10.601562 8.886719 Z M 10.578125 10.777344 C 10.761719 10.980469 10.734375 11.078125 10.546875 10.894531 C 10.398438 10.757812 10.34375 10.636719 10.417969 10.636719 C 10.429688 10.636719 10.5 10.699219 10.578125 10.777344 Z M 9.417969 11.574219 C 9.941406 11.582031 10.132812 11.601562 10.132812 11.660156 C 10.132812 11.828125 8.320312 11.726562 8.144531 11.546875 C 8.019531 11.417969 8.183594 11.371094 8.4375 11.464844 C 8.613281 11.527344 8.960938 11.566406 9.417969 11.574219 Z M 8.042969 11.648438 C 8.105469 11.726562 8.101562 11.746094 7.992188 11.746094 C 7.921875 11.746094 7.851562 11.71875 7.839844 11.6875 C 7.835938 11.652344 7.738281 11.667969 7.632812 11.71875 C 7.53125 11.769531 7.492188 11.796875 7.554688 11.777344 C 7.613281 11.765625 7.753906 11.765625 7.851562 11.789062 C 8.042969 11.824219 8.042969 11.828125 8.042969 12.242188 C 8.042969 12.636719 7.988281 12.753906 7.871094 12.574219 C 7.847656 12.535156 7.820312 12.460938 7.820312 12.429688 C 7.820312 12.292969 7.550781 12.351562 7.453125 12.507812 C 7.429688 12.554688 7.320312 12.59375 7.226562 12.59375 C 7.113281 12.59375 7.03125 12.636719 7.003906 12.695312 C 6.964844 12.796875 6.980469 12.796875 7.066406 12.714844 C 7.164062 12.636719 7.175781 12.636719 7.148438 12.714844 C 7.132812 12.769531 7.0625 12.855469 6.984375 12.898438 C 6.871094 12.976562 6.839844 12.976562 6.75 12.886719 C 6.582031 12.703125 6.546875 12.457031 6.6875 12.339844 C 6.757812 12.28125 6.832031 12.1875 6.851562 12.128906 C 6.878906 12.070312 6.980469 11.980469 7.085938 11.933594 C 7.1875 11.886719 7.257812 11.824219 7.246094 11.796875 C 7.21875 11.757812 7.71875 11.5625 7.890625 11.554688 C 7.929688 11.546875 8 11.59375 8.042969 11.648438 Z M 8.960938 11.824219 L 9.40625 11.835938 L 8.960938 11.875 L 8.519531 11.914062 L 9.074219 11.925781 C 9.386719 11.933594 9.683594 11.914062 9.742188 11.882812 C 9.804688 11.847656 10.0625 11.804688 10.324219 11.785156 C 10.632812 11.757812 10.742188 11.769531 10.640625 11.804688 C 10.550781 11.835938 10.375 11.863281 10.246094 11.867188 C 10.078125 11.875 10.007812 11.90625 10.007812 11.972656 C 10.007812 12.042969 10.078125 12.070312 10.261719 12.070312 C 10.507812 12.070312 10.511719 12.078125 10.511719 12.292969 L 10.511719 12.515625 L 9.992188 12.554688 C 9.703125 12.578125 9.339844 12.597656 9.183594 12.613281 C 8.921875 12.625 8.898438 12.636719 8.878906 12.800781 C 8.859375 12.953125 8.886719 12.984375 8.988281 12.984375 C 9.113281 12.984375 9.121094 13.023438 9.121094 13.605469 L 9.121094 14.222656 L 8.9375 14.222656 C 8.839844 14.222656 8.683594 14.28125 8.59375 14.355469 C 8.40625 14.511719 8.03125 14.523438 7.890625 14.386719 C 7.839844 14.335938 7.734375 14.289062 7.652344 14.289062 L 7.511719 14.289062 L 7.636719 14.191406 C 7.917969 13.996094 8.070312 13.421875 8.207031 12.117188 C 8.238281 11.765625 8.253906 11.738281 8.378906 11.769531 C 8.453125 11.789062 8.722656 11.816406 8.960938 11.824219 Z M 12.585938 12.292969 C 12.660156 12.390625 12.742188 12.457031 12.769531 12.449219 C 12.792969 12.4375 12.871094 12.507812 12.9375 12.605469 C 13.039062 12.742188 13.054688 12.835938 13.019531 13.074219 C 12.988281 13.289062 12.945312 13.375 12.875 13.375 C 12.820312 13.375 12.785156 13.394531 12.8125 13.414062 C 12.886719 13.492188 12.691406 13.617188 12.488281 13.625 C 12.230469 13.628906 12.066406 13.402344 12.121094 13.109375 C 12.148438 12.984375 12.132812 12.925781 12.089844 12.953125 C 12.058594 12.976562 11.933594 12.945312 11.8125 12.886719 C 11.648438 12.808594 11.558594 12.800781 11.464844 12.855469 C 11.316406 12.9375 11.210938 13.121094 11.210938 13.304688 C 11.210938 13.46875 11.082031 13.488281 11.078125 13.324219 C 11.078125 13.265625 11.050781 13.050781 11.019531 12.855469 C 10.96875 12.460938 11.050781 12.265625 11.285156 12.265625 C 11.355469 12.265625 11.394531 12.242188 11.367188 12.207031 C 11.324219 12.128906 11.699219 12.078125 12.121094 12.101562 C 12.375 12.117188 12.46875 12.15625 12.585938 12.292969 Z M 15.667969 12.429688 C 15.796875 12.519531 15.921875 12.59375 15.953125 12.59375 C 16.035156 12.59375 16.257812 12.878906 16.308594 13.050781 C 16.332031 13.140625 16.398438 13.269531 16.441406 13.34375 C 16.492188 13.414062 16.53125 13.570312 16.53125 13.703125 C 16.53125 14.222656 16.136719 14.394531 15.777344 14.023438 C 15.5625 13.800781 15.535156 13.664062 15.675781 13.46875 C 15.757812 13.355469 15.761719 13.363281 15.726562 13.578125 C 15.707031 13.707031 15.71875 13.832031 15.75 13.851562 C 15.777344 13.871094 15.800781 13.742188 15.800781 13.566406 C 15.800781 13.390625 15.796875 13.246094 15.78125 13.246094 C 15.675781 13.246094 15.246094 13.546875 15.09375 13.726562 C 14.820312 14.042969 14.726562 14.367188 14.726562 14.980469 L 14.726562 15.515625 L 14.496094 15.328125 C 14.371094 15.222656 14.238281 15.136719 14.199219 15.136719 C 14.167969 15.136719 14.046875 15.050781 13.941406 14.949219 C 13.839844 14.851562 13.730469 14.777344 13.710938 14.796875 C 13.699219 14.816406 13.628906 14.785156 13.574219 14.734375 C 13.507812 14.675781 13.394531 14.609375 13.3125 14.582031 C 13.167969 14.535156 12.984375 14.183594 12.984375 13.9375 C 12.984375 13.722656 13.167969 13.492188 13.320312 13.519531 C 13.425781 13.53125 13.476562 13.609375 13.535156 13.859375 C 13.585938 14.074219 13.707031 14.289062 13.921875 14.535156 C 14.261719 14.941406 14.492188 15.085938 14.230469 14.734375 C 13.636719 13.929688 13.640625 13.03125 14.25 12.613281 C 14.363281 12.527344 14.421875 12.460938 14.371094 12.460938 C 14.320312 12.460938 14.210938 12.515625 14.128906 12.574219 C 14.039062 12.632812 13.996094 12.644531 14.027344 12.597656 C 14.128906 12.421875 14.59375 12.265625 15.015625 12.265625 C 15.359375 12.265625 15.480469 12.292969 15.667969 12.429688 Z M 7.746094 12.441406 C 7.707031 12.457031 7.613281 12.527344 7.53125 12.597656 C 7.453125 12.664062 7.347656 12.722656 7.289062 12.714844 C 7.214844 12.714844 7.21875 12.703125 7.316406 12.65625 C 7.382812 12.625 7.511719 12.539062 7.601562 12.46875 C 7.6875 12.398438 7.769531 12.359375 7.789062 12.378906 C 7.808594 12.398438 7.789062 12.429688 7.746094 12.441406 Z M 10.765625 12.777344 C 10.765625 12.875 10.828125 13.082031 10.898438 13.246094 C 10.976562 13.410156 11.070312 13.667969 11.113281 13.824219 C 11.210938 14.140625 11.199219 14.171875 10.863281 14.367188 C 10.746094 14.433594 10.742188 14.433594 10.828125 14.320312 C 10.917969 14.21875 10.914062 14.210938 10.785156 14.25 C 10.671875 14.289062 10.628906 14.257812 10.558594 14.113281 C 10.386719 13.765625 10.304688 13.265625 10.378906 13.035156 C 10.546875 12.546875 10.765625 12.402344 10.765625 12.777344 Z M 10.195312 12.816406 C 10.195312 12.953125 10.164062 13.050781 10.109375 13.0625 C 10.042969 13.074219 10.058594 13.199219 10.175781 13.6875 C 10.378906 14.535156 10.398438 14.5625 10.722656 14.511719 C 10.867188 14.484375 11.019531 14.445312 11.050781 14.417969 C 11.089844 14.394531 11.203125 14.355469 11.304688 14.328125 L 11.496094 14.28125 L 11.363281 14.40625 C 11.285156 14.476562 11.058594 14.5625 10.8125 14.609375 C 10.394531 14.679688 10.378906 14.679688 10.164062 14.503906 C 9.949219 14.328125 9.941406 14.300781 9.941406 13.890625 C 9.941406 13.648438 9.925781 13.363281 9.90625 13.25 C 9.867188 13.074219 9.886719 13.035156 10 13.003906 C 10.144531 12.964844 10.191406 12.691406 10.058594 12.636719 C 10.007812 12.617188 10.019531 12.597656 10.089844 12.597656 C 10.171875 12.59375 10.195312 12.644531 10.195312 12.816406 Z M 5.042969 12.753906 C 5.179688 12.867188 5.28125 12.878906 5.226562 12.789062 C 5.199219 12.742188 5.238281 12.730469 5.332031 12.75 C 5.410156 12.769531 5.574219 12.796875 5.695312 12.816406 C 5.8125 12.839844 5.972656 12.90625 6.042969 12.972656 C 6.105469 13.03125 6.144531 13.042969 6.117188 12.996094 C 6.09375 12.953125 6.113281 12.917969 6.167969 12.917969 C 6.289062 12.917969 6.484375 13.210938 6.429688 13.308594 C 6.410156 13.34375 6.433594 13.394531 6.492188 13.414062 C 6.546875 13.441406 6.582031 13.5 6.5625 13.546875 C 6.542969 13.597656 6.554688 13.707031 6.585938 13.800781 C 6.664062 14.015625 6.472656 14.269531 6.296875 14.191406 C 6.09375 14.101562 6.023438 14.101562 5.945312 14.199219 C 5.902344 14.257812 5.894531 14.289062 5.941406 14.289062 C 5.980469 14.289062 6.023438 14.257812 6.035156 14.222656 C 6.054688 14.183594 6.0625 14.191406 6.054688 14.238281 C 6.042969 14.289062 5.945312 14.320312 5.808594 14.316406 C 5.675781 14.316406 5.574219 14.335938 5.574219 14.367188 C 5.574219 14.394531 5.527344 14.417969 5.484375 14.417969 C 5.433594 14.417969 5.351562 14.496094 5.308594 14.597656 C 5.128906 14.972656 4.554688 14.921875 4.507812 14.53125 C 4.484375 14.296875 4.648438 14.027344 4.824219 14.027344 C 4.945312 14.027344 4.945312 14.035156 4.789062 14.164062 C 4.667969 14.261719 4.625 14.355469 4.628906 14.503906 L 4.636719 14.714844 L 4.679688 14.511719 C 4.75 14.230469 4.800781 14.160156 4.945312 14.160156 C 5.167969 14.160156 4.972656 13.910156 4.710938 13.859375 C 4.371094 13.792969 4.027344 13.929688 3.78125 14.230469 C 3.539062 14.515625 3.453125 14.804688 3.382812 15.488281 C 3.320312 16.109375 3.160156 16.246094 2.183594 16.476562 C 2 16.515625 2 16.515625 2.292969 16.195312 C 2.671875 15.777344 2.882812 15.347656 3.078125 14.5625 C 3.414062 13.269531 3.886719 12.691406 4.457031 12.90625 C 4.640625 12.976562 4.648438 12.972656 4.527344 12.878906 C 4.421875 12.796875 4.414062 12.777344 4.496094 12.722656 C 4.636719 12.632812 4.902344 12.644531 5.042969 12.753906 Z M 7.726562 12.703125 C 7.726562 12.777344 7.320312 13.050781 7.21875 13.050781 C 7.164062 13.050781 7.167969 13.011719 7.25 12.917969 C 7.316406 12.847656 7.417969 12.789062 7.480469 12.789062 C 7.542969 12.789062 7.613281 12.753906 7.632812 12.722656 C 7.675781 12.644531 7.726562 12.636719 7.726562 12.703125 Z M 10.070312 12.820312 C 10.070312 12.898438 9.960938 12.917969 9.5 12.917969 C 9.039062 12.917969 8.929688 12.898438 8.929688 12.820312 C 8.929688 12.742188 9.039062 12.722656 9.5 12.722656 C 9.960938 12.722656 10.070312 12.742188 10.070312 12.820312 Z M 9.417969 14.007812 C 9.40625 14.183594 9.398438 14.042969 9.398438 13.703125 C 9.398438 13.363281 9.40625 13.21875 9.417969 13.390625 C 9.429688 13.566406 9.429688 13.839844 9.417969 14.007812 Z M 9.625 13.734375 L 9.582031 14.320312 L 9.574219 13.761719 C 9.570312 13.453125 9.582031 13.179688 9.609375 13.160156 C 9.671875 13.089844 9.671875 13.109375 9.625 13.734375 Z M 9.796875 14.007812 C 9.785156 14.183594 9.777344 14.042969 9.777344 13.703125 C 9.777344 13.363281 9.785156 13.21875 9.796875 13.390625 C 9.808594 13.566406 9.808594 13.839844 9.796875 14.007812 Z M 11.882812 13.335938 C 11.835938 13.519531 11.894531 13.589844 12.152344 13.726562 C 12.292969 13.804688 12.433594 13.832031 12.570312 13.804688 C 12.773438 13.765625 12.78125 13.773438 12.820312 14.042969 C 12.84375 14.191406 12.90625 14.367188 12.957031 14.425781 C 13.046875 14.53125 13.027344 14.542969 12.738281 14.582031 C 12.351562 14.636719 11.976562 14.476562 11.582031 14.09375 C 11.324219 13.839844 11.273438 13.625 11.40625 13.371094 C 11.539062 13.101562 11.945312 13.074219 11.882812 13.335938 Z M 9.304688 14.007812 C 9.308594 14.125 9.285156 14.222656 9.246094 14.222656 C 9.207031 14.222656 9.191406 14.007812 9.191406 13.683594 C 9.203125 13.179688 9.203125 13.167969 9.246094 13.472656 C 9.277344 13.648438 9.304688 13.898438 9.304688 14.007812 Z M 2.457031 14.398438 C 2.496094 14.457031 2.515625 14.570312 2.496094 14.636719 C 2.46875 14.71875 2.484375 14.746094 2.527344 14.71875 C 2.570312 14.6875 2.597656 14.773438 2.597656 14.988281 C 2.597656 15.300781 2.367188 15.921875 2.222656 16.011719 C 2.132812 16.070312 2.132812 16.042969 2.25 15.769531 C 2.375 15.449219 2.367188 15.050781 2.230469 14.875 C 2.128906 14.746094 2.109375 14.738281 2.03125 14.835938 C 1.933594 14.960938 1.835938 14.96875 1.683594 14.855469 C 1.589844 14.785156 1.582031 14.757812 1.664062 14.597656 C 1.714844 14.492188 1.8125 14.367188 1.875 14.316406 C 2.019531 14.199219 2.34375 14.25 2.457031 14.398438 Z M 7.808594 14.496094 C 7.902344 14.542969 7.980469 14.601562 7.980469 14.621094 C 7.980469 14.648438 7.878906 14.746094 7.757812 14.835938 C 7.636719 14.933594 7.535156 15.070312 7.535156 15.136719 C 7.535156 15.203125 7.511719 15.28125 7.472656 15.300781 C 7.441406 15.320312 7.410156 15.4375 7.410156 15.5625 C 7.410156 15.992188 7.980469 16.140625 8.355469 15.816406 L 8.550781 15.644531 L 8.550781 15.972656 C 8.550781 16.359375 8.519531 16.378906 7.960938 16.378906 C 7.503906 16.378906 7.144531 16.226562 6.71875 15.875 C 6.472656 15.660156 6.398438 15.632812 6.054688 15.621094 C 5.839844 15.613281 5.542969 15.554688 5.390625 15.488281 L 5.105469 15.371094 L 5.484375 15.261719 C 6.09375 15.070312 6.359375 14.960938 6.261719 14.929688 C 6.125 14.882812 6.511719 14.707031 6.871094 14.648438 C 7.042969 14.621094 7.238281 14.5625 7.308594 14.511719 C 7.46875 14.398438 7.585938 14.394531 7.808594 14.496094 Z M 11.90625 14.636719 L 12.285156 14.855469 L 11.917969 15.15625 C 11.710938 15.320312 11.507812 15.464844 11.464844 15.476562 C 11.425781 15.488281 11.304688 15.347656 11.210938 15.171875 L 11.039062 14.84375 L 11.265625 14.636719 C 11.394531 14.515625 11.5 14.425781 11.507812 14.417969 C 11.519531 14.417969 11.699219 14.515625 11.90625 14.636719 Z M 16.53125 14.753906 C 16.949219 14.851562 17.203125 14.992188 17.285156 15.175781 C 17.390625 15.425781 17.371094 15.527344 17.214844 15.527344 C 17.066406 15.535156 17.066406 15.535156 17.195312 15.632812 C 17.320312 15.730469 17.320312 15.730469 17.203125 15.828125 C 17.011719 15.964844 16.746094 15.945312 16.632812 15.777344 C 16.5625 15.679688 16.53125 15.660156 16.523438 15.722656 C 16.523438 15.777344 16.5 15.75 16.460938 15.671875 C 16.429688 15.585938 16.414062 15.488281 16.441406 15.457031 C 16.480469 15.386719 16.148438 15.378906 16.035156 15.449219 C 15.996094 15.484375 15.890625 15.601562 15.800781 15.722656 C 15.628906 15.964844 15.578125 16.46875 15.707031 16.710938 C 15.789062 16.859375 15.757812 16.867188 15.511719 16.730469 C 15.261719 16.597656 15.136719 16.285156 15.136719 15.824219 C 15.136719 15.3125 15.257812 15.105469 15.695312 14.882812 C 16.113281 14.667969 16.148438 14.660156 16.53125 14.753906 Z M 10.785156 14.921875 C 11.007812 15.164062 11.148438 15.527344 11.148438 15.855469 L 11.148438 16.121094 L 11.355469 15.90625 C 11.664062 15.582031 12.386719 15.066406 12.636719 15 C 12.804688 14.949219 12.953125 14.96875 13.289062 15.070312 C 13.722656 15.203125 13.875 15.3125 13.957031 15.5625 C 13.992188 15.644531 13.941406 15.621094 13.824219 15.476562 C 13.621094 15.234375 13.027344 15.039062 12.699219 15.097656 C 12.425781 15.152344 11.449219 15.925781 11.179688 16.3125 C 10.886719 16.714844 10.613281 16.910156 10.863281 16.535156 C 10.980469 16.351562 11.019531 16.207031 11.019531 15.941406 C 11.019531 15.515625 10.914062 15.234375 10.644531 14.953125 C 10.527344 14.832031 10.476562 14.746094 10.527344 14.746094 C 10.578125 14.746094 10.691406 14.824219 10.785156 14.921875 Z M 5.28125 15.625 C 5.511719 15.746094 5.695312 15.789062 5.953125 15.789062 C 6.261719 15.789062 6.351562 15.824219 6.5625 15.992188 C 7.042969 16.390625 7.398438 16.535156 7.898438 16.535156 C 8.398438 16.539062 8.441406 16.59375 8.105469 16.792969 C 7.898438 16.925781 7.890625 16.925781 7.9375 16.792969 C 7.980469 16.675781 7.972656 16.675781 7.890625 16.78125 C 7.847656 16.847656 7.765625 16.898438 7.707031 16.898438 C 7.636719 16.898438 7.617188 16.867188 7.644531 16.78125 C 7.683594 16.683594 7.675781 16.675781 7.574219 16.769531 C 7.472656 16.851562 7.449219 16.847656 7.367188 16.734375 C 7.320312 16.664062 7.257812 16.613281 7.234375 16.617188 C 7.175781 16.636719 6.777344 16.359375 6.777344 16.292969 C 6.777344 16.265625 6.730469 16.246094 6.683594 16.246094 C 6.632812 16.246094 6.585938 16.21875 6.585938 16.179688 C 6.585938 16.148438 6.566406 16.121094 6.542969 16.121094 C 6.410156 16.140625 6.328125 16.109375 6.363281 16.050781 C 6.390625 16.003906 6.351562 15.992188 6.246094 16.023438 C 6.144531 16.050781 6.078125 16.039062 6.078125 15.992188 C 6.078125 15.941406 6.042969 15.945312 5.945312 16 C 5.839844 16.0625 5.800781 16.0625 5.78125 16.003906 C 5.761719 15.945312 5.710938 15.953125 5.59375 16.03125 C 5.433594 16.140625 5.425781 16.140625 5.476562 15.984375 C 5.523438 15.835938 5.511719 15.84375 5.328125 16.042969 C 5.097656 16.292969 5.003906 16.277344 5.160156 16.023438 C 5.226562 15.933594 5.257812 15.855469 5.230469 15.855469 C 5.210938 15.855469 5.125 15.964844 5.035156 16.101562 C 4.953125 16.238281 4.792969 16.402344 4.6875 16.460938 C 4.492188 16.585938 4.421875 16.519531 4.589844 16.378906 C 4.738281 16.253906 4.960938 15.921875 4.921875 15.882812 C 4.902344 15.863281 4.769531 16.019531 4.625 16.226562 C 4.371094 16.59375 4.207031 16.75 4.140625 16.683594 C 4.117188 16.65625 4.925781 15.464844 4.964844 15.464844 C 4.972656 15.464844 5.109375 15.535156 5.28125 15.625 Z M 11.851562 15.972656 C 11.652344 16.1875 11.480469 16.34375 11.46875 16.332031 C 11.433594 16.304688 12.101562 15.59375 12.167969 15.59375 C 12.191406 15.59375 12.046875 15.765625 11.851562 15.972656 Z M 8.90625 16.0625 C 8.871094 16.21875 8.886719 16.253906 8.960938 16.21875 C 9.101562 16.167969 9.074219 16.257812 8.898438 16.457031 C 8.808594 16.554688 8.738281 16.65625 8.738281 16.691406 C 8.738281 16.722656 8.675781 16.78125 8.601562 16.820312 C 8.519531 16.867188 8.386719 16.953125 8.296875 17.011719 C 8.207031 17.074219 8.277344 16.957031 8.453125 16.753906 C 8.632812 16.546875 8.785156 16.378906 8.804688 16.378906 C 8.824219 16.378906 8.828125 16.207031 8.816406 16.003906 C 8.804688 15.699219 8.816406 15.652344 8.871094 15.746094 C 8.910156 15.816406 8.921875 15.960938 8.90625 16.0625 Z M 14.933594 16.265625 C 15.136719 16.585938 15.160156 16.703125 14.996094 16.597656 C 14.953125 16.566406 14.863281 16.546875 14.800781 16.539062 C 14.742188 16.539062 14.625 16.421875 14.535156 16.277344 C 14.34375 15.960938 14.320312 16.078125 14.507812 16.402344 C 14.585938 16.535156 14.609375 16.636719 14.574219 16.636719 C 14.535156 16.636719 14.464844 16.546875 14.410156 16.441406 C 14.273438 16.175781 14.226562 16.195312 14.339844 16.476562 C 14.433594 16.703125 14.402344 16.769531 14.269531 16.632812 C 14.210938 16.574219 14.207031 16.59375 14.230469 16.703125 C 14.261719 16.828125 14.25 16.847656 14.167969 16.8125 C 14.105469 16.789062 14.066406 16.800781 14.078125 16.847656 C 14.097656 16.957031 13.621094 17.109375 13.394531 17.070312 C 13.292969 17.042969 13.136719 16.992188 13.046875 16.945312 C 12.953125 16.890625 12.832031 16.871094 12.761719 16.90625 C 12.691406 16.933594 12.507812 16.957031 12.351562 16.957031 L 12.066406 16.957031 L 12.335938 16.867188 C 12.484375 16.820312 12.652344 16.742188 12.703125 16.695312 C 12.769531 16.636719 12.820312 16.636719 12.84375 16.683594 C 12.921875 16.808594 13.289062 16.964844 13.496094 16.964844 C 13.640625 16.964844 13.761719 16.898438 13.945312 16.703125 C 14.1875 16.457031 14.199219 16.421875 14.175781 16.148438 C 14.140625 15.882812 14.148438 15.855469 14.273438 15.855469 C 14.34375 15.855469 14.453125 15.824219 14.503906 15.789062 C 14.574219 15.746094 14.617188 15.757812 14.660156 15.828125 C 14.699219 15.894531 14.820312 16.082031 14.933594 16.265625 Z M 3.671875 16.082031 C 3.617188 16.148438 3.617188 16.179688 3.667969 16.179688 C 3.703125 16.179688 3.738281 16.214844 3.738281 16.253906 C 3.738281 16.292969 3.691406 16.304688 3.636719 16.285156 C 3.578125 16.257812 3.488281 16.277344 3.445312 16.316406 C 3.304688 16.4375 3.34375 16.304688 3.496094 16.136719 C 3.648438 15.972656 3.800781 15.925781 3.671875 16.082031 Z M 6.429688 16.441406 L 6.683594 16.574219 L 6.429688 16.527344 C 6.289062 16.496094 5.964844 16.476562 5.710938 16.476562 C 5.328125 16.476562 5.269531 16.460938 5.359375 16.398438 C 5.527344 16.265625 6.136719 16.292969 6.429688 16.441406 Z M 4.121094 16.496094 C 3.976562 16.773438 3.902344 16.792969 3.230469 16.703125 C 2.886719 16.65625 2.457031 16.636719 2.265625 16.65625 C 1.988281 16.691406 1.949219 16.683594 2.058594 16.617188 C 2.140625 16.566406 2.488281 16.539062 3.050781 16.539062 C 3.660156 16.539062 3.945312 16.515625 3.996094 16.457031 C 4.117188 16.339844 4.191406 16.359375 4.121094 16.496094 Z M 4.121094 16.496094 "/>
<path style=" stroke:none;fill-rule:nonzero;fill:rgb(100%,100%,100%);fill-opacity:1;" d="M 8.886719 6.960938 C 8.828125 6.980469 8.804688 7.132812 8.804688 7.410156 L 8.804688 7.828125 L 9 7.828125 C 9.152344 7.828125 9.191406 7.808594 9.15625 7.726562 C 9.140625 7.667969 9.121094 7.484375 9.121094 7.308594 C 9.121094 7 9.050781 6.902344 8.886719 6.960938 Z M 8.886719 6.960938 "/>
<path style=" stroke:none;fill-rule:nonzero;fill:rgb(100%,100%,100%);fill-opacity:1;" d="M 8.441406 7.339844 C 8.441406 7.554688 8.453125 7.632812 8.46875 7.515625 C 8.480469 7.398438 8.480469 7.222656 8.46875 7.125 C 8.453125 7.027344 8.441406 7.125 8.441406 7.339844 Z M 8.441406 7.339844 "/>
<path style=" stroke:none;fill-rule:nonzero;fill:rgb(100%,100%,100%);fill-opacity:1;" d="M 9.925781 8.070312 C 9.898438 8.089844 9.878906 8.285156 9.878906 8.496094 C 9.878906 8.855469 9.886719 8.875 10.039062 8.875 C 10.191406 8.875 10.195312 8.855469 10.195312 8.488281 C 10.195312 8.203125 10.171875 8.097656 10.09375 8.066406 C 9.976562 8.019531 9.976562 8.019531 9.925781 8.070312 Z M 9.925781 8.070312 "/>
<path style=" stroke:none;fill-rule:nonzero;fill:rgb(100%,100%,100%);fill-opacity:1;" d="M 8.886719 9.113281 C 8.828125 9.132812 8.804688 9.292969 8.804688 9.566406 C 8.804688 9.988281 8.804688 9.988281 8.972656 9.96875 C 9.140625 9.949219 9.144531 9.945312 9.125 9.558594 C 9.105469 9.0625 9.082031 9.03125 8.886719 9.113281 Z M 8.886719 9.113281 "/>
<path style=" stroke:none;fill-rule:nonzero;fill:rgb(100%,100%,100%);fill-opacity:1;" d="M 9.925781 10.21875 C 9.898438 10.242188 9.878906 10.441406 9.878906 10.648438 C 9.878906 11.015625 9.886719 11.027344 10.039062 11.027344 C 10.195312 11.027344 10.203125 11.019531 10.183594 10.621094 C 10.171875 10.316406 10.140625 10.203125 10.070312 10.191406 C 10.011719 10.183594 9.949219 10.191406 9.925781 10.21875 Z M 9.925781 10.21875 "/>
<path style=" stroke:none;fill-rule:nonzero;fill:rgb(100%,100%,100%);fill-opacity:1;" d="M 8.601562 12.300781 C 8.621094 12.417969 8.671875 12.460938 8.777344 12.460938 C 8.898438 12.460938 8.929688 12.429688 8.929688 12.300781 C 8.929688 12.160156 8.898438 12.136719 8.746094 12.136719 C 8.589844 12.136719 8.570312 12.15625 8.601562 12.300781 Z M 8.601562 12.300781 "/>
<path style=" stroke:none;fill-rule:nonzero;fill:rgb(100%,100%,100%);fill-opacity:1;" d="M 10.113281 12.273438 C 10.09375 12.351562 10.113281 12.417969 10.164062 12.4375 C 10.292969 12.488281 10.386719 12.410156 10.386719 12.261719 C 10.386719 12.089844 10.160156 12.097656 10.113281 12.273438 Z M 10.113281 12.273438 "/>
<path style=" stroke:none;fill-rule:nonzero;fill:rgb(100%,100%,100%);fill-opacity:1;" d="M 8.152344 13.285156 C 8.125 13.460938 8.050781 13.722656 7.988281 13.859375 C 7.902344 14.023438 7.890625 14.074219 7.953125 14.023438 C 8.070312 13.921875 8.253906 13.296875 8.21875 13.101562 C 8.207031 13.015625 8.175781 13.089844 8.152344 13.285156 Z M 8.152344 13.285156 "/>
<path style=" stroke:none;fill-rule:nonzero;fill:rgb(100%,100%,100%);fill-opacity:1;" d="M 11.621094 12.59375 C 11.640625 12.625 11.601562 12.65625 11.527344 12.65625 C 11.394531 12.65625 11.082031 12.925781 11.082031 13.042969 C 11.082031 13.074219 11.164062 13.023438 11.261719 12.917969 C 11.363281 12.816406 11.550781 12.710938 11.679688 12.691406 C 11.867188 12.652344 11.957031 12.675781 12.179688 12.820312 C 12.417969 12.984375 12.433594 12.992188 12.316406 12.855469 C 12.128906 12.632812 11.5 12.398438 11.621094 12.59375 Z M 11.621094 12.59375 "/>
<path style=" stroke:none;fill-rule:nonzero;fill:rgb(100%,100%,100%);fill-opacity:1;" d="M 14.257812 12.695312 C 14.078125 12.828125 13.871094 13.269531 13.871094 13.539062 C 13.871094 13.746094 13.992188 14.25 14.027344 14.210938 C 14.046875 14.199219 14.027344 14.074219 13.992188 13.929688 C 13.882812 13.539062 13.972656 13.148438 14.230469 12.847656 C 14.476562 12.566406 14.484375 12.539062 14.257812 12.695312 Z M 14.257812 12.695312 "/>
<path style=" stroke:none;fill-rule:nonzero;fill:rgb(100%,100%,100%);fill-opacity:1;" d="M 15.230469 13.191406 C 14.863281 13.402344 14.433594 14.054688 14.445312 14.386719 C 14.445312 14.472656 14.476562 14.4375 14.535156 14.289062 L 14.617188 14.0625 L 14.59375 14.417969 L 14.574219 14.777344 L 14.625 14.476562 C 14.730469 13.890625 15.105469 13.371094 15.496094 13.269531 C 15.613281 13.238281 15.628906 13.210938 15.566406 13.171875 C 15.460938 13.101562 15.382812 13.101562 15.230469 13.191406 Z M 15.296875 13.304688 C 15.085938 13.433594 14.8125 13.726562 14.707031 13.929688 C 14.667969 14.003906 14.628906 14.027344 14.628906 13.988281 C 14.625 13.804688 15.238281 13.179688 15.414062 13.179688 C 15.453125 13.179688 15.402344 13.230469 15.296875 13.304688 Z M 15.296875 13.304688 "/>
<path style=" stroke:none;fill-rule:nonzero;fill:rgb(100%,100%,100%);fill-opacity:1;" d="M 3.738281 13.238281 C 3.589844 13.390625 3.4375 13.667969 3.335938 13.957031 C 3.109375 14.582031 3.121094 14.707031 3.351562 14.121094 C 3.578125 13.511719 3.769531 13.199219 3.976562 13.082031 C 4.074219 13.03125 4.109375 12.992188 4.058594 12.984375 C 4.007812 12.984375 3.863281 13.09375 3.738281 13.238281 Z M 3.738281 13.238281 "/>
<path style=" stroke:none;fill-rule:nonzero;fill:rgb(100%,100%,100%);fill-opacity:1;" d="M 4.023438 13.628906 C 3.738281 13.765625 3.554688 13.949219 3.515625 14.144531 C 3.503906 14.21875 3.445312 14.367188 3.394531 14.476562 C 3.335938 14.582031 3.261719 14.902344 3.222656 15.183594 C 3.152344 15.722656 3.039062 16.003906 2.867188 16.109375 C 2.804688 16.148438 2.785156 16.179688 2.832031 16.179688 C 2.917969 16.179688 3.230469 15.808594 3.230469 15.703125 C 3.230469 15.660156 3.261719 15.425781 3.292969 15.183594 C 3.394531 14.453125 3.699219 13.976562 4.1875 13.773438 C 4.269531 13.742188 4.292969 13.707031 4.242188 13.707031 C 4.191406 13.703125 4.054688 13.761719 3.9375 13.832031 C 3.820312 13.910156 3.742188 13.9375 3.769531 13.898438 C 3.832031 13.785156 4.136719 13.648438 4.402344 13.609375 C 4.609375 13.578125 4.625 13.585938 4.496094 13.636719 C 4.371094 13.6875 4.394531 13.695312 4.625 13.667969 C 4.839844 13.644531 4.882812 13.648438 4.8125 13.707031 C 4.730469 13.765625 4.730469 13.773438 4.8125 13.746094 C 4.863281 13.734375 4.941406 13.765625 4.976562 13.820312 C 5.035156 13.898438 5.046875 13.898438 5.046875 13.800781 C 5.046875 13.667969 4.71875 13.507812 4.453125 13.507812 C 4.355469 13.507812 4.160156 13.566406 4.023438 13.628906 Z M 4.023438 13.628906 "/>
<path style=" stroke:none;fill-rule:nonzero;fill:rgb(100%,100%,100%);fill-opacity:1;" d="M 1.898438 14.71875 C 1.753906 14.796875 1.753906 14.8125 1.875 14.8125 C 1.945312 14.8125 2.03125 14.777344 2.070312 14.738281 C 2.117188 14.695312 2.179688 14.71875 2.273438 14.851562 C 2.34375 14.949219 2.40625 14.992188 2.40625 14.960938 C 2.40625 14.894531 2.132812 14.609375 2.082031 14.621094 C 2.070312 14.628906 1.988281 14.667969 1.898438 14.71875 Z M 1.898438 14.71875 "/>
<path style=" stroke:none;fill-rule:nonzero;fill:rgb(100%,100%,100%);fill-opacity:1;" d="M 15.898438 14.949219 C 15.808594 14.988281 15.675781 15.078125 15.597656 15.152344 C 15.492188 15.253906 15.453125 15.269531 15.445312 15.195312 C 15.445312 15.144531 15.390625 15.222656 15.320312 15.367188 C 15.195312 15.640625 15.175781 15.914062 15.269531 16.179688 C 15.300781 16.292969 15.3125 16.21875 15.289062 15.953125 C 15.277344 15.730469 15.28125 15.613281 15.3125 15.679688 C 15.351562 15.777344 15.378906 15.757812 15.441406 15.566406 C 15.523438 15.332031 15.847656 15.007812 15.992188 15.007812 C 16.042969 15.007812 16.097656 14.972656 16.117188 14.941406 C 16.167969 14.863281 16.105469 14.863281 15.898438 14.949219 Z M 15.898438 14.949219 "/>
<path style=" stroke:none;fill-rule:nonzero;fill:rgb(100%,100%,100%);fill-opacity:1;" d="M 10.867188 1.058594 C 10.628906 1.867188 10.386719 2.761719 10.40625 2.78125 C 10.417969 2.800781 10.589844 2.414062 10.78125 1.929688 C 11.050781 1.234375 11.109375 1.042969 11.039062 1.011719 C 10.90625 0.964844 10.894531 0.964844 10.867188 1.058594 Z M 10.867188 1.058594 "/>
<path style=" stroke:none;fill-rule:nonzero;fill:rgb(100%,100%,100%);fill-opacity:1;" d="M 6.066406 1.480469 C 6.003906 1.5 5.953125 1.527344 5.953125 1.546875 C 5.953125 1.59375 7.796875 3.550781 7.867188 3.582031 C 7.898438 3.589844 7.632812 3.234375 7.269531 2.792969 C 6.226562 1.496094 6.1875 1.449219 6.066406 1.480469 Z M 6.066406 1.480469 "/>
<path style=" stroke:none;fill-rule:nonzero;fill:rgb(100%,100%,100%);fill-opacity:1;" d="M 11.996094 2.464844 C 11.546875 3.027344 11.164062 3.515625 11.152344 3.550781 C 11.128906 3.628906 13.003906 1.644531 13.035156 1.566406 C 13.046875 1.539062 12.996094 1.5 12.933594 1.488281 C 12.835938 1.460938 12.628906 1.675781 11.996094 2.464844 Z M 11.996094 2.464844 "/>
<path style=" stroke:none;fill-rule:nonzero;fill:rgb(100%,100%,100%);fill-opacity:1;" d="M 2.578125 2.949219 C 2.566406 2.996094 2.539062 3.058594 2.527344 3.085938 C 2.515625 3.117188 3.617188 3.378906 4.972656 3.660156 C 6.332031 3.949219 7.53125 4.195312 7.632812 4.222656 C 7.738281 4.242188 7.808594 4.242188 7.789062 4.222656 C 7.757812 4.1875 2.742188 2.871094 2.652344 2.871094 C 2.628906 2.871094 2.597656 2.910156 2.578125 2.949219 Z M 2.578125 2.949219 "/>
<path style=" stroke:none;fill-rule:nonzero;fill:rgb(100%,100%,100%);fill-opacity:1;" d="M 13.773438 3.523438 C 10.355469 4.417969 10.363281 4.429688 13.855469 3.691406 C 15.160156 3.417969 16.289062 3.195312 16.378906 3.195312 C 16.460938 3.195312 16.53125 3.175781 16.53125 3.144531 C 16.523438 3.046875 16.351562 2.871094 16.269531 2.882812 C 16.21875 2.882812 15.097656 3.171875 13.773438 3.523438 Z M 13.773438 3.523438 "/>
<path style=" stroke:none;fill-rule:nonzero;fill:rgb(100%,100%,100%);fill-opacity:1;" d="M 5.984375 5.808594 C 5.394531 5.984375 4.375 6.265625 3.722656 6.441406 L 2.546875 6.753906 L 2.519531 6.96875 C 2.5 7.144531 2.515625 7.175781 2.589844 7.152344 C 2.722656 7.113281 7.09375 5.570312 7.21875 5.527344 C 7.285156 5.5 7.277344 5.492188 7.1875 5.492188 C 7.117188 5.492188 6.582031 5.636719 5.984375 5.808594 Z M 5.984375 5.808594 "/>
<path style=" stroke:none;fill-rule:nonzero;fill:rgb(100%,100%,100%);fill-opacity:1;" d="M 13.996094 6.296875 C 15.269531 6.734375 16.359375 7.117188 16.421875 7.144531 C 16.511719 7.183594 16.53125 7.15625 16.53125 6.96875 C 16.53125 6.753906 16.515625 6.746094 16.167969 6.660156 C 15.972656 6.617188 14.914062 6.328125 13.8125 6.027344 C 12.71875 5.730469 11.785156 5.480469 11.753906 5.488281 C 11.714844 5.488281 12.722656 5.851562 13.996094 6.296875 Z M 13.996094 6.296875 "/>
<path style=" stroke:none;fill-rule:nonzero;fill:rgb(100%,100%,100%);fill-opacity:1;" d="M 11.113281 7.144531 C 11.488281 7.765625 14.527344 12.003906 14.605469 12.003906 C 14.65625 12.003906 14.691406 11.992188 14.691406 11.980469 C 14.691406 11.960938 14.289062 11.390625 13.789062 10.71875 C 13.289062 10.046875 12.488281 8.953125 12.007812 8.285156 C 11.128906 7.074219 10.894531 6.777344 11.113281 7.144531 Z M 11.113281 7.144531 "/>
<path style=" stroke:none;fill-rule:nonzero;fill:rgb(100%,100%,100%);fill-opacity:1;" d="M 7.839844 7.15625 C 7.785156 7.222656 6.960938 8.34375 6.011719 9.65625 C 5.054688 10.96875 4.191406 12.148438 4.097656 12.28125 C 3.957031 12.46875 3.9375 12.527344 4.015625 12.527344 C 4.128906 12.527344 4.21875 12.402344 6.332031 9.394531 C 7.175781 8.195312 7.898438 7.171875 7.9375 7.125 C 8.03125 7 7.949219 7.035156 7.839844 7.15625 Z M 7.839844 7.15625 "/>
<path style=" stroke:none;fill-rule:nonzero;fill:rgb(100%,100%,100%);fill-opacity:1;" d="M 11.019531 8.527344 C 11.019531 8.632812 12.273438 11.679688 12.355469 11.789062 C 12.46875 11.925781 12.550781 11.886719 12.46875 11.726562 C 12.425781 11.648438 12.085938 10.875 11.703125 10.015625 C 11.332031 9.152344 11.019531 8.480469 11.019531 8.527344 Z M 11.019531 8.527344 "/>
<path style=" stroke:none;fill-rule:nonzero;fill:rgb(100%,100%,100%);fill-opacity:1;" d="M 7.21875 10.191406 C 6.382812 12.128906 6.402344 12.078125 6.566406 11.90625 C 6.636719 11.835938 6.75 11.628906 6.820312 11.449219 C 6.898438 11.269531 7.1875 10.558594 7.472656 9.867188 C 7.757812 9.167969 7.980469 8.585938 7.960938 8.574219 C 7.949219 8.554688 7.613281 9.285156 7.21875 10.191406 Z M 7.21875 10.191406 "/>
<path style=" stroke:none;fill-rule:nonzero;fill:rgb(100%,100%,100%);fill-opacity:1;" d="M 10.195312 15.171875 C 10.265625 15.308594 10.328125 15.5625 10.335938 15.722656 L 10.34375 16.019531 L 10.386719 15.691406 C 10.4375 15.371094 10.4375 15.378906 10.425781 15.804688 C 10.425781 16.039062 10.4375 16.21875 10.46875 16.199219 C 10.519531 16.167969 10.53125 15.515625 10.476562 15.371094 C 10.457031 15.3125 10.40625 15.289062 10.367188 15.3125 C 10.324219 15.339844 10.316406 15.3125 10.347656 15.230469 C 10.375 15.164062 10.375 15.128906 10.347656 15.152344 C 10.328125 15.175781 10.253906 15.128906 10.191406 15.050781 C 10.082031 14.921875 10.082031 14.933594 10.195312 15.171875 Z M 10.195312 15.171875 "/>
<path style=" stroke:none;fill-rule:nonzero;fill:rgb(100%,100%,100%);fill-opacity:1;" d="M 12.601562 15.992188 C 12.210938 16.265625 12.089844 16.382812 12.140625 16.460938 C 12.160156 16.496094 12.148438 16.507812 12.117188 16.488281 C 12.035156 16.4375 11.507812 16.730469 11.570312 16.789062 C 11.589844 16.8125 11.570312 16.832031 11.527344 16.832031 C 11.480469 16.832031 11.457031 16.851562 11.476562 16.871094 C 11.546875 16.945312 12.066406 16.617188 12.414062 16.277344 C 12.601562 16.089844 12.820312 15.90625 12.886719 15.867188 C 12.957031 15.828125 12.988281 15.796875 12.953125 15.789062 C 12.921875 15.789062 12.761719 15.882812 12.601562 15.992188 Z M 12.601562 15.992188 "/>
<path style=" stroke:none;fill-rule:nonzero;fill:rgb(100%,100%,100%);fill-opacity:1;" d="M 10.578125 16.101562 C 10.578125 16.3125 10.203125 16.703125 9.847656 16.871094 C 9.675781 16.957031 9.570312 17.023438 9.613281 17.023438 C 9.765625 17.03125 10.3125 16.710938 10.445312 16.535156 C 10.589844 16.339844 10.679688 16.070312 10.613281 16.003906 C 10.59375 15.980469 10.578125 16.023438 10.578125 16.101562 Z M 10.578125 16.101562 "/>
<path style=" stroke:none;fill-rule:nonzero;fill:rgb(100%,100%,100%);fill-opacity:1;" d="M 5.226562 17.132812 C 4.984375 17.226562 4.625 17.335938 4.433594 17.382812 C 4.117188 17.453125 4.105469 17.464844 4.261719 17.503906 C 4.355469 17.53125 4.691406 17.519531 5.015625 17.480469 C 5.769531 17.386719 6.148438 17.441406 7 17.761719 C 7.859375 18.085938 8.519531 18.191406 9.070312 18.085938 C 9.523438 18 10.121094 17.714844 10.449219 17.425781 L 10.671875 17.238281 L 10.195312 17.40625 C 9.765625 17.566406 9.625 17.578125 8.773438 17.585938 C 7.871094 17.585938 7.785156 17.570312 7.164062 17.367188 C 6.699219 17.226562 6.363281 17.160156 6.054688 17.152344 L 5.605469 17.148438 L 6.113281 16.976562 L 5.890625 16.972656 C 5.769531 16.972656 5.472656 17.042969 5.226562 17.132812 Z M 7.574219 17.675781 C 7.667969 17.597656 7.695312 17.664062 7.613281 17.792969 C 7.582031 17.84375 7.535156 17.84375 7.449219 17.78125 C 7.378906 17.722656 7.351562 17.664062 7.382812 17.605469 C 7.429688 17.539062 7.441406 17.546875 7.460938 17.636719 C 7.480469 17.726562 7.503906 17.742188 7.574219 17.675781 Z M 7.574219 17.675781 "/>
<path style=" stroke:none;fill-rule:nonzero;fill:rgb(100%,100%,100%);fill-opacity:1;" d="M 14.660156 17.304688 C 14.273438 17.464844 13.636719 17.480469 13.046875 17.328125 C 12.570312 17.210938 11.863281 17.191406 11.417969 17.289062 C 11.050781 17.375 9.476562 18.140625 9.671875 18.140625 C 9.746094 18.140625 10.175781 18.019531 10.621094 17.871094 C 11.53125 17.570312 12.117188 17.519531 12.730469 17.683594 C 12.921875 17.734375 13.339844 17.78125 13.65625 17.78125 C 14.199219 17.78125 14.25 17.765625 14.71875 17.519531 C 15.042969 17.347656 15.289062 17.257812 15.453125 17.257812 C 15.585938 17.257812 15.664062 17.238281 15.625 17.210938 C 15.484375 17.121094 14.976562 17.167969 14.660156 17.304688 Z M 14.660156 17.304688 "/>
<path style=" stroke:none;fill-rule:nonzero;fill:rgb(100%,100%,100%);fill-opacity:1;" d="M 6.144531 17.773438 C 6.261719 17.824219 6.636719 18.007812 6.964844 18.191406 C 7.890625 18.691406 8.132812 18.757812 9.058594 18.757812 L 9.847656 18.753906 L 10.652344 18.414062 C 11.539062 18.035156 12.039062 17.910156 12.4375 17.976562 C 12.667969 18.007812 12.6875 18 12.570312 17.929688 C 12.488281 17.878906 12.230469 17.84375 11.84375 17.851562 C 11.332031 17.851562 11.132812 17.890625 10.511719 18.097656 C 9.234375 18.523438 8.390625 18.542969 7.433594 18.164062 C 6.546875 17.8125 6.175781 17.6875 6.046875 17.6875 C 5.964844 17.6875 5.996094 17.722656 6.144531 17.773438 Z M 6.144531 17.773438 "/>
<path style=" stroke:none;fill-rule:nonzero;fill:rgb(100%,100%,100%);fill-opacity:1;" d="M 15.796875 18.851562 C 15.695312 18.953125 16.042969 18.988281 17.421875 18.988281 C 18.390625 18.988281 19 18.960938 19 18.921875 C 19 18.863281 15.851562 18.792969 15.796875 18.851562 Z M 15.796875 18.851562 "/>
</g>
</svg>
